<svg width="148" height="149" viewBox="0 0 148 149" fill="none" xmlns="http://www.w3.org/2000/svg">
<path d="M74.1687 146.877C73.5 145.808 72.5768 144.459 71.4432 142.93M74.1687 146.877C65.2283 129.938 63.1213 116.352 60.5035 106.914C57.8857 97.4772 58.4581 80.1105 43.8965 66.9802C32.2473 56.476 10.8659 55.6842 1.63142 56.6014C-1.15741 65.4911 5.78014 86.8486 12.8735 96.7234C19.9669 106.598 27.6665 111.889 43.8197 118.453C54.6078 122.836 65.7135 135.2 71.4432 142.93M74.1687 146.877C73.351 145.893 72.4379 144.551 71.4432 142.93M74.1687 146.877C87.2412 124.789 113.835 77.4718 115.627 55.9087M71.4432 142.93C65.6226 133.445 57.0099 114.423 48.3971 101.953C40.3295 90.2735 32.3366 83.6099 29.3486 81.7381M73.0469 148C77.8769 138.578 86.6677 115.012 83.19 96.1277C78.8429 72.5229 79.4226 59.7006 86.0881 44.2555C92.7536 28.8104 113.619 5.20559 126.661 2C134.872 12.1025 150.309 37.6112 146.367 58.8263C141.441 85.3453 119.705 97.2934 110.142 107.202C100.578 117.11 86.9575 125.269 73.0469 148Z" stroke="url(#paint0_linear_277_4609)" stroke-width="2" stroke-linecap="round"/>
<defs>
<linearGradient id="paint0_linear_277_4609" x1="74" y1="2" x2="74" y2="148" gradientUnits="userSpaceOnUse">
<stop stop-color="white"/>
<stop offset="1" stop-color="#696969"/>
</linearGradient>
</defs>
</svg>
